<svg xmlns="http://www.w3.org/2000/svg" xmlns:xlink="http://www.w3.org/1999/xlink" version="1.1" x="0px" y="0px" viewBox="0 0 32 40" enable-background="new 0 0 32 32" xml:space="preserve"><g display="none"><rect x="-27.339" y="-186.672" display="inline" fill="#000000" width="473.333" height="236"/></g><g display="none"><circle display="inline" fill="#000000" cx="16" cy="16" r="16"/><g display="inline"><line fill="none" stroke="#000000" stroke-width="2" stroke-miterlimit="10" x1="2.826" y1="14.479" x2="17.544" y2="28.97"/><line fill="none" stroke="#000000" stroke-width="2" stroke-miterlimit="10" x1="5.734" y1="11.617" x2="20.452" y2="26.107"/><line fill="none" stroke="#000000" stroke-width="2" stroke-miterlimit="10" x1="8.641" y1="8.755" x2="23.359" y2="23.245"/><line fill="none" stroke="#000000" stroke-width="2" stroke-miterlimit="10" x1="11.548" y1="5.893" x2="26.266" y2="20.383"/><line fill="none" stroke="#000000" stroke-width="2" stroke-miterlimit="10" x1="14.456" y1="3.03" x2="29.174" y2="17.521"/></g></g><g display="none"><g display="inline"><path fill="#000000" d="M16,1c8.271,0,15,6.729,15,15s-6.729,15-15,15S1,24.271,1,16S7.729,1,16,1 M16,0C7.163,0,0,7.163,0,16    c0,8.837,7.163,16,16,16s16-7.163,16-16C32,7.163,24.837,0,16,0L16,0z"/></g><line display="inline" fill="#000000" stroke="#1A1718" stroke-miterlimit="10" x1="2.826" y1="14.479" x2="17.544" y2="28.97"/><line display="inline" fill="#000000" stroke="#1A1718" stroke-miterlimit="10" x1="5.734" y1="11.617" x2="20.452" y2="26.107"/><line display="inline" fill="#000000" stroke="#1A1718" stroke-miterlimit="10" x1="8.641" y1="8.755" x2="23.359" y2="23.245"/><line display="inline" fill="#000000" stroke="#1A1718" stroke-miterlimit="10" x1="11.548" y1="5.893" x2="26.266" y2="20.383"/><line display="inline" fill="#000000" stroke="#1A1718" stroke-miterlimit="10" x1="14.456" y1="3.03" x2="29.174" y2="17.521"/></g><g display="none"><g display="inline"><path fill="#000000" d="M16,2c7.72,0,14,6.28,14,14s-6.28,14-14,14S2,23.72,2,16S8.28,2,16,2 M16,0C7.163,0,0,7.163,0,16    c0,8.837,7.163,16,16,16s16-7.163,16-16C32,7.163,24.837,0,16,0L16,0z"/></g><line display="inline" fill="#000000" stroke="#0F8EDB" stroke-width="2" stroke-miterlimit="10" x1="3.881" y1="14.601" x2="17.421" y2="27.931"/><line display="inline" fill="#000000" stroke="#0F8EDB" stroke-width="2" stroke-miterlimit="10" x1="6.556" y1="11.968" x2="20.095" y2="25.298"/><line display="inline" fill="#000000" stroke="#0F8EDB" stroke-width="2" stroke-miterlimit="10" x1="9.23" y1="9.335" x2="22.77" y2="22.665"/><line display="inline" fill="#000000" stroke="#0F8EDB" stroke-width="2" stroke-miterlimit="10" x1="11.905" y1="6.702" x2="25.444" y2="20.032"/><line display="inline" fill="#000000" stroke="#0F8EDB" stroke-width="2" stroke-miterlimit="10" x1="14.579" y1="4.069" x2="28.119" y2="17.399"/></g><g><path d="M16,0C7.163,0,0,7.163,0,16s7.163,16,16,16c8.837,0,16-7.163,16-16S24.837,0,16,0z M16,31.5C7.453,31.5,0.5,24.547,0.5,16   C0.5,7.453,7.453,0.5,16,0.5c8.547,0,15.5,6.953,15.5,15.5C31.5,24.547,24.547,31.5,16,31.5z"/><rect x="10.401" y="11.766" transform="matrix(0.7016 -0.7126 0.7126 0.7016 -11.9757 13.9358)" width="0.5" height="19"/><rect x="13.076" y="9.133" transform="matrix(0.7016 -0.7126 0.7126 0.7016 -9.3015 15.0563)" width="0.5" height="19.001"/><rect x="15.75" y="6.499" transform="matrix(0.7016 -0.7126 0.7126 0.7016 -6.6264 16.1764)" width="0.5" height="19.001"/><rect x="18.424" y="3.867" transform="matrix(0.7016 -0.7126 0.7126 0.7016 -3.9524 17.2958)" width="0.5" height="19"/><rect x="21.099" y="1.234" transform="matrix(0.7016 -0.7126 0.7126 0.7016 -1.2781 18.4162)" width="0.5" height="19"/></g><g display="none"><g display="inline"><path fill="#000000" d="M16,31.5C7.453,31.5,0.5,24.547,0.5,16S7.453,0.5,16,0.5c8.546,0,15.5,6.953,15.5,15.5    S24.547,31.5,16,31.5z"/><path fill="#000000" d="M16,1c8.271,0,15,6.729,15,15s-6.729,15-15,15S1,24.271,1,16S7.729,1,16,1 M16,0C7.163,0,0,7.163,0,16    c0,8.837,7.163,16,16,16s16-7.163,16-16C32,7.163,24.837,0,16,0L16,0z"/></g><line display="inline" fill="#000000" stroke="#1A1718" stroke-miterlimit="10" x1="2.826" y1="14.479" x2="17.544" y2="28.97"/><line display="inline" fill="#000000" stroke="#1A1718" stroke-miterlimit="10" x1="5.734" y1="11.617" x2="20.452" y2="26.107"/><line display="inline" fill="#000000" stroke="#1A1718" stroke-miterlimit="10" x1="8.641" y1="8.755" x2="23.359" y2="23.245"/><line display="inline" fill="#000000" stroke="#1A1718" stroke-miterlimit="10" x1="11.548" y1="5.893" x2="26.266" y2="20.383"/><line display="inline" fill="#000000" stroke="#1A1718" stroke-miterlimit="10" x1="14.456" y1="3.03" x2="29.174" y2="17.521"/></g><g display="none"><path display="inline" d="M16,0C7.163,0,0,7.163,0,16s7.163,16,16,16s16-7.163,16-16S24.837,0,16,0z M16.843,29.682L2.125,15.192   l1.403-1.426l14.718,14.49L16.843,29.682z M19.751,26.82L5.032,12.33l1.403-1.426l14.718,14.49L19.751,26.82z M22.658,23.958   L7.939,9.467l1.403-1.426l14.718,14.49L22.658,23.958z M25.565,21.095L10.847,6.605l1.403-1.426l14.717,14.49L25.565,21.095z    M28.472,18.233L13.754,3.744l1.403-1.426l14.717,14.489L28.472,18.233z"/></g><g display="none"><circle display="inline" fill="#000000" cx="16" cy="16" r="16"/><g display="inline"><path fill="#000000" d="M16.678,27L4.845,15.35l1.128-1.146l11.833,11.65L16.678,27z M19.016,24.699L7.182,13.049l1.128-1.146    l11.833,11.65L19.016,24.699z M21.353,22.398L9.52,10.748l1.128-1.146l11.833,11.65L21.353,22.398z M23.69,20.096L11.857,8.447    L12.986,7.3l11.832,11.65L23.69,20.096z M26.028,17.795L14.195,6.146L15.323,5l11.832,11.649L26.028,17.795z"/></g></g><text x="0" y="47" fill="#000000" font-size="5px" font-weight="bold" font-family="'Helvetica Neue', Helvetica, Arial-Unicode, Arial, Sans-serif">Created by Icons By Alfredo</text><text x="0" y="52" fill="#000000" font-size="5px" font-weight="bold" font-family="'Helvetica Neue', Helvetica, Arial-Unicode, Arial, Sans-serif">from the Noun Project</text></svg>